# xmcd CD database file
#
# Track frame offsets:
#	150
#	28323
#	62001
#	92645
#	126848
#	154837
#	173858
#	210888
#	223857
#
# Disc length: 3258 seconds
#
# Revision: 0
# Processed by: cddbd v1.5.2PL0 Copyright (c) Steve Scherf et al.
# Submitted via: CDex 1.51
#
DISCID=7c0cb809
DTITLE=Charles Mingus - Mingus Dynasty
DYEAR=1959
DGENRE=Jazz
TTITLE0=Slop
TTITLE1=Diane
TTITLE2=Song With Orange
TTITLE3=Things Ain't What They Used To Be
TTITLE4=Far Wells, Mill Valley
TTITLE5=New Now Know How
TTITLE6=Mood Indigo
TTITLE7=Put Me In The Dungeon
TTITLE8=Strollin'
EXTD=YEAR: 1959
EXTT0=
EXTT1=
EXTT2=
EXTT3=
EXTT4=
EXTT5=
EXTT6=
EXTT7=
EXTT8=
PLAYORDER=
